<svg width="16" height="16" viewBox="0 0 16 16" fill="none" xmlns="http://www.w3.org/2000/svg">
<g clip-path="url(#clip0_22_5)">
<path d="M8 16C8.53043 16 9.03914 15.7893 9.41421 15.4142C9.78929 15.0391 10 14.5304 10 14H6C6 14.5304 6.21071 15.0391 6.58579 15.4142C6.96086 15.7893 7.46957 16 8 16ZM8 1.918L7.203 2.079C6.29896 2.2632 5.48633 2.7541 4.90265 3.46862C4.31897 4.18314 4.0001 5.07738 4 6C4 6.628 3.866 8.197 3.541 9.742C3.381 10.509 3.165 11.308 2.878 12H13.122C12.835 11.308 12.62 10.51 12.459 9.742C12.134 8.197 12 6.628 12 6C11.9997 5.07755 11.6807 4.18355 11.097 3.46923C10.5134 2.75492 9.70087 2.26416 8.797 2.08L8 1.917V1.918ZM14.22 12C14.443 12.447 14.701 12.801 15 13H1C1.299 12.801 1.557 12.447 1.78 12C2.68 10.2 3 6.88 3 6C3 3.58 4.72 1.56 7.005 1.099C6.99104 0.959951 7.00638 0.819524 7.05003 0.686771C7.09368 0.554018 7.16467 0.431887 7.25842 0.328256C7.35217 0.224624 7.4666 0.141792 7.59433 0.0851021C7.72206 0.0284121 7.86026 -0.00087738 8 -0.00087738C8.13974 -0.00087738 8.27794 0.0284121 8.40567 0.0851021C8.5334 0.141792 8.64783 0.224624 8.74158 0.328256C8.83533 0.431887 8.90632 0.554018 8.94997 0.686771C8.99362 0.819524 9.00896 0.959951 8.995 1.099C10.1253 1.3289 11.1414 1.94236 11.8712 2.8355C12.6011 3.72864 12.9999 4.84657 13 6C13 6.88 13.32 10.2 14.22 12Z" fill="#303030"/>
</g>
<defs>
<clipPath id="clip0_22_5">
<rect width="16" height="16" fill="white"/>
</clipPath>
</defs>
</svg>
